<?xml version="1.0" encoding="iso-8859-1"?>
<!-- Generator: Adobe Illustrator 17.1.0, SVG Export Plug-In . SVG Version: 6.00 Build 0)  -->
<!DOCTYPE svg PUBLIC "-//W3C//DTD SVG 1.1//EN" "http://www.w3.org/Graphics/SVG/1.1/DTD/svg11.dtd">
<svg version="1.1" id="Capa_1" xmlns="http://www.w3.org/2000/svg" xmlns:xlink="http://www.w3.org/1999/xlink" x="0px" y="0px"
	 viewBox="0 0 473.086 473.086" style="enable-background:new 0 0 473.086 473.086;" xml:space="preserve">
<path d="M442.283,303.2h-6.465v-85.052c3.427-3.43,6.7-6.957,9.762-10.569c18.668-22.028,28.413-44.788,27.439-64.086
	c-0.86-17.043-14.303-50.179-27.402-62.018c-15.813-14.291-42.878-22.487-74.256-22.487c-25.278,0-51.449,5.389-73.691,15.172
	c-36.043,15.856-59.283,36.887-69.075,62.508c-8.554,22.382-6.765,47.658,5.318,75.127c5.506,12.516,12.176,23.163,19.905,31.881
	V303.2h-46.335c-4.645,0-6.454-1.161-7.12-1.853c-0.612-0.637-0.708-1.364-0.721-1.652l0.019-156.981l-0.156-0.61
	c-1.981-7.747-8.934-13.158-16.906-13.158h-9.586c-6.741,0-12.344-0.068-12.461-0.069h-58.753c-15.925,0-23.404,8.043-29.694,20.134
	c-1.351,2.243-18.638,30.976-35.709,60.798C0,273.388,0,279.883,0,282.656v45.122c0,15.851,12.897,28.748,28.751,28.748h42.841
	c-0.074,1.148-0.122,2.303-0.122,3.47c0,29.832,24.268,54.102,54.097,54.102c29.83,0,54.099-24.27,54.099-54.102
	c0-1.167-0.048-2.322-0.122-3.47h118.571c-0.074,1.148-0.122,2.303-0.122,3.47c0,29.832,24.27,54.102,54.101,54.102
	c29.828,0,54.096-24.27,54.096-54.102c0-1.167-0.048-2.322-0.122-3.47h36.217c11.906,0,21.233-7.116,21.233-16.2v-20.925
	C463.517,310.316,454.189,303.2,442.283,303.2z M125.566,386.499c-14.635,0-26.5-11.866-26.5-26.5
	c0-14.635,11.866-26.499,26.5-26.499c14.635,0,26.5,11.864,26.5,26.499C152.067,374.633,140.201,386.499,125.566,386.499z
	 M169.422,218.339c0,7.72-6.28,14-14,14H66.225c-3.16,0-5.486-0.875-6.381-2.4c-0.887-1.512-0.531-3.938,0.975-6.664
	c1.541-2.524,23.575-38.672,30.063-51.928c7.236-14.785,15.85-15.96,26.357-15.96h43.313c5.342,0,8.87,0,8.87,24.021V218.339z
	 M352.092,386.499c-14.635,0-26.499-11.866-26.499-26.5c0-14.635,11.864-26.499,26.499-26.499c14.635,0,26.499,11.864,26.499,26.499
	C378.591,374.633,366.727,386.499,352.092,386.499z M273.818,303.2v-42.67c12.916,7.826,27.72,11.834,44.148,11.834
	c18.164,0,38.515-4.901,60.487-14.566c12.859-5.657,25.597-13.288,37.364-22.223V303.2H273.818z"/>
<g>
</g>
<g>
</g>
<g>
</g>
<g>
</g>
<g>
</g>
<g>
</g>
<g>
</g>
<g>
</g>
<g>
</g>
<g>
</g>
<g>
</g>
<g>
</g>
<g>
</g>
<g>
</g>
<g>
</g>
</svg>
