<?xml version="1.0" encoding="iso-8859-1"?>
<!-- Generator: Adobe Illustrator 19.0.0, SVG Export Plug-In . SVG Version: 6.00 Build 0)  -->
<svg version="1.1" id="Layer_1" xmlns="http://www.w3.org/2000/svg" xmlns:xlink="http://www.w3.org/1999/xlink" x="0px" y="0px"
	 viewBox="0 0 512 512" style="enable-background:new 0 0 512 512;" xml:space="preserve">
<g>
	<g>
		<path d="M406.069,125.101V44.138H158.897v80.963l-23.54,23.54v10.844v14.124v223.632v7.062v17.906l45.653,45.653h202.947
			l45.653-45.653v-14.375v-10.593V173.609v-10.593v-14.375L406.069,125.101z M194.207,114.759h176.552v35.31H194.207V114.759z
			 M216.56,269.465c-0.999,0.973-2.136,1.789-3.411,2.448c-1.276,0.659-2.644,1.162-4.103,1.507
			c-1.459,0.345-2.881,0.518-4.264,0.518c-2.428,0-4.649-0.494-6.662-1.483c-2.013-0.989-3.75-2.299-5.209-3.931
			c-1.46-1.631-2.589-3.484-3.389-5.556c-0.799-2.072-1.198-4.174-1.198-6.309c0-2.04,0.375-4.049,1.129-6.026
			c0.753-1.977,1.851-3.75,3.297-5.32c1.444-1.569,3.196-2.84,5.255-3.814c2.06-0.973,4.41-1.459,7.054-1.459
			c3.165,0,5.909,0.667,8.23,2.001c2.32,1.335,4.049,3.1,5.186,5.297l-6.869,4.991c-0.307-0.816-0.714-1.49-1.222-2.024
			c-0.507-0.533-1.069-0.957-1.683-1.271c-0.616-0.313-1.252-0.533-1.914-0.659c-0.661-0.125-1.298-0.188-1.913-0.188
			c-1.291,0-2.406,0.259-3.343,0.777s-1.706,1.193-2.305,2.024c-0.599,0.832-1.045,1.774-1.336,2.825
			c-0.293,1.052-0.439,2.095-0.439,3.131c0,1.162,0.169,2.276,0.507,3.343c0.338,1.068,0.83,2.009,1.475,2.825
			c0.645,0.817,1.436,1.468,2.374,1.954c0.937,0.487,1.989,0.73,3.158,0.73c0.614,0,1.245-0.071,1.89-0.212
			c0.645-0.141,1.268-0.377,1.867-0.706c0.599-0.33,1.137-0.753,1.614-1.271c0.477-0.518,0.853-1.153,1.13-1.907l7.33,4.473
			C218.303,267.393,217.558,268.493,216.56,269.465z M245.303,273.655h-23.327v-33.427h22.912v8.004h-13.922v4.708h11.894v7.439
			h-11.894v5.273h14.337V273.655z M283.244,273.655h-8.99v-17.608l-5.486,12.382h-4.795l-5.486-12.382v17.608h-8.99v-33.427h9.82
			l7.054,15.725l7.1-15.725h9.774V273.655z M312.196,273.655h-0.001h-23.327v-33.427h22.913v8.004h-13.922v4.708h11.894v7.439
			h-11.894v5.273h14.337V273.655z M345.527,273.655h-0.001h-7.146l-13-16.431v16.431h-8.99v-33.427h7.008l13.139,16.996v-16.996
			h8.99V273.655z M376.644,248.232h-9.404v25.423h-8.99v-25.423h-9.451v-8.004h27.846V248.232z"/>
	</g>
</g>
<g>
	<g>
		<path d="M55.433,220.69H0V256h55.433c3.236,11.393,9.514,21.513,17.906,29.425c-8.392,7.912-14.67,18.032-17.906,29.425H0v35.31
			h55.433c6.111,21.522,23.096,38.506,44.613,44.619V176.07C78.529,182.184,61.545,199.168,55.433,220.69z"/>
	</g>
</g>
<g>
	<g>
		<polygon points="464.92,173.609 464.92,397.241 512,397.241 512,303.08 512,267.77 512,173.609 		"/>
	</g>
</g>
<g>
</g>
<g>
</g>
<g>
</g>
<g>
</g>
<g>
</g>
<g>
</g>
<g>
</g>
<g>
</g>
<g>
</g>
<g>
</g>
<g>
</g>
<g>
</g>
<g>
</g>
<g>
</g>
<g>
</g>
</svg>
