<svg height="512pt" viewBox="0 -1 512 512" width="512pt" xmlns="http://www.w3.org/2000/svg"><path d="m227.265625 358.703125c-2.601563 4.324219-8.21875 5.726563-12.546875 3.125-45.621094-27.375-83.546875-23.378906-109.0625-13.648437-.820312.472656-1.710938.8125-2.632812 1.011718-12.007813 4.777344-23.046876 11.699219-32.578126 20.425782-3.59375 3.460937-9.292968 3.402343-12.816406-.128907-3.523437-3.53125-3.5625-9.234375-.09375-12.816406 8.136719-7.390625 17.238282-13.644531 27.054688-18.597656-6.859375-7.027344-12.203125-15.386719-15.699219-24.566407-38.773437 22.738282-47.863281 67.117188-49.9375 86.199219h417.527344c-21.722657-21.816406-44.28125-33.589843-67.273438-34.742187-9.902343-.445313-19.796875.988281-29.164062 4.214844-11.785157 3.980468-22.625 10.339843-31.847657 18.6875-3.585937 3.464843-9.289062 3.414062-12.816406-.109376-3.527344-3.527343-3.574218-9.230468-.109375-12.820312 5.789063-5.414062 12.195313-10.128906 19.089844-14.050781-27.390625-4.191407-53.480469-14.503907-76.335937-30.171875-10.410157-6.625-21.277344-12.503906-32.519532-17.589844-2.589844 6.757812-6.164062 13.089844-10.613281 18.796875 10.164063 3.816406 19.957031 8.5625 29.253906 14.171875 2.09375 1.25 3.601563 3.285156 4.1875 5.652344.585938 2.371094.203125 4.875-1.066406 6.957031zm0 0"/><path d="m329.144531 253.421875h109.710938c5.050781 0 9.144531-4.09375 9.144531-9.144531v-18.285156c0-2.652344-.089844-5.667969-.273438-9.140626-1.007812-19.933593-5.03125-51.203124-12.984374-65.371093-9.324219-16.550781-22.765626-26.058594-37.027344-26.058594-28.160156 0-50.285156 36.113281-50.285156 82.285156v9.144531h18.285156v-9.144531c0-37.667969 16.824218-64 32-64 7.40625 0 15.085937 6.125 21.121094 16.730469 6.582031 18.101562 10.164062 37.15625 10.605468 56.414062h-63.726562v9.140626c0 5.050781-4.09375 9.144531-9.144532 9.144531-5.046874 0-9.140624-4.09375-9.140624-9.144531v-9.140626h-18.285157c-5.050781 0-9.144531 4.09375-9.144531 9.140626v18.285156c0 5.050781 4.09375 9.144531 9.144531 9.144531zm0 0"/><path d="m433.820312 372.808594c10.003907 8.042968 19.191407 17.054687 27.425782 26.898437h31.085937c-3.300781-9.5625-14.992187-22.691406-55.597656-30.171875-.878906 1.167969-1.855469 2.261719-2.914063 3.273438zm0 0"/><path d="m68.324219 98.421875c-2.886719 1.035156-5.851563 1.828125-8.867188 2.378906l53.429688 146.804688c.828125 2.28125.710937 4.796875-.316407 6.992187-1.027343 2.199219-2.886718 3.894532-5.167968 4.722656-1.003906.371094-2.0625.558594-3.128906.554688-3.847657 0-7.28125-2.40625-8.59375-6.023438l-3.117188-8.558593-25.71875 9.390625 18.714844 51.4375c3.433594 9.492187 9.480468 17.820312 17.445312 24.027344 11.238282-3.933594 22.960938-6.3125 34.84375-7.066407.453125-1.109375 1.121094-2.121093 1.964844-2.972656 1.003906-1.023437 21.804688-22.636719 8.007812-43.328125-2.800781-4.199219-1.667968-9.878906 2.535157-12.679688 4.199219-2.804687 9.878906-1.667968 12.679687 2.53125 11.015625 17.71875 9.925782 40.40625-2.742187 56.988282 5.15625.574218 10.273437 1.4375 15.332031 2.585937 15.3125-14.914062 20.394531-37.453125 12.964844-57.5l-18.726563-51.5625-25.761719 9.371094 3.125 8.582031c1.21875 3.09375.664063 6.605469-1.453124 9.171875-2.113282 2.566407-5.453126 3.777344-8.722657 3.171875-3.269531-.609375-5.949219-2.941406-7.003906-6.097656l-6.199219-17.023438c0-.054687-.0625-.089843-.082031-.136718-.015625-.046875 0-.109375 0-.15625l-47.167969-129.609375c-2.640625 1.5625-5.410156 2.902343-8.273437 4.003906zm0 0"/><path d="m330.789062 271.707031 12.898438 77.46875c8.652344-2.0625 17.550781-2.890625 26.433594-2.460937 17.128906 1.015625 33.738281 6.269531 48.339844 15.289062 2.101562-1.089844 3.679687-2.972656 4.386718-5.230468.101563-.367188.230469-.722657.382813-1.070313l13.980469-83.996094zm53.210938 45.714844c0 5.050781-4.09375 9.144531-9.144531 9.144531-5.046875 0-9.140625-4.09375-9.140625-9.144531v-18.285156c0-5.050781 4.09375-9.144531 9.140625-9.144531 5.050781 0 9.144531 4.09375 9.144531 9.144531zm0 0"/><path d="m411.429688 500.277344c0 5.050781 4.09375 9.144531 9.140624 9.144531h54.859376c5.046874 0 9.140624-4.09375 9.140624-9.144531v-9.140625h-73.140624zm0 0"/><path d="m27.429688 500.277344c0 5.050781 4.09375 9.144531 9.140624 9.144531h54.859376c5.046874 0 9.140624-4.09375 9.140624-9.144531v-9.140625h-73.140624zm0 0"/><path d="m502.855469 417.992188h-493.710938c-5.050781 0-9.144531 4.09375-9.144531 9.144531v36.570312c0 5.050781 4.09375 9.144531 9.144531 9.144531h493.710938c5.050781 0 9.144531-4.09375 9.144531-9.144531v-36.570312c0-5.050781-4.09375-9.144531-9.144531-9.144531zm-420.570313 36.574218h-54.855468c-5.050782 0-9.144532-4.09375-9.144532-9.144531s4.09375-9.144531 9.144532-9.144531h54.855468c5.050782 0 9.144532 4.09375 9.144532 9.144531s-4.09375 9.144531-9.144532 9.144531zm402.285156 0h-54.855468c-5.050782 0-9.144532-4.09375-9.144532-9.144531s4.09375-9.144531 9.144532-9.144531h54.855468c5.050782 0 9.144532 4.09375 9.144532 9.144531s-4.09375 9.144531-9.144532 9.144531zm0 0"/><path d="m47.351562 83.4375c5.003907.277344 10.015626-.472656 14.71875-2.203125 4.757813-1.71875 9.113282-4.394531 12.800782-7.855469 10.460937-10.074218 14.019531-25.359375 9.078125-39.019531l-12.535157-34.359375-68.726562 25.015625 12.507812 34.367187c5.023438 13.667969 17.625 23.097657 32.15625 24.054688zm-12.609374-50.625c2.28125-.828125 4.800781-.714844 7 .3125 2.199218 1.03125 3.898437 2.890625 4.722656 5.175781l3.125 8.59375c3.074218-1.140625 6.523437-.550781 9.042968 1.550781 2.515626 2.101563 3.714844 5.390626 3.140626 8.621094-.574219 3.226563-2.832032 5.902344-5.917969 7.007813-2.109375.761719-4.335938 1.148437-6.574219 1.140625-.210938 0-.996094 0-1.207031 0-7.140625-.636719-13.265625-5.351563-15.699219-12.09375l-3.117188-8.585938c-.828124-2.28125-.71875-4.800781.3125-7 1.027344-2.195312 2.890626-3.894531 5.171876-4.722656zm0 0"/></svg>